<svg width="1598" height="1559" xmlns="http://www.w3.org/2000/svg" xmlns:xlink="http://www.w3.org/1999/xlink" xml:space="preserve" overflow="hidden"><defs><clipPath id="clip0"><rect x="2031" y="81" width="1598" height="1559"/></clipPath></defs><g clip-path="url(#clip0)" transform="translate(-2031 -81)"><path d="M2290.83 81.0001 3629 81.0001 3629 1380.12C3629 1523.62 3512.67 1639.95 3369.17 1639.95L2031 1639.95 2031 340.831C2031 197.33 2147.33 81.0001 2290.83 81.0001Z" fill="#FFD966" fill-rule="evenodd"/><text font-family="Calibri,Calibri_MSFontService,sans-serif" font-weight="700" font-size="92" transform="matrix(1 0 0 1 2265.86 754)">тема урока</text><text font-family="Calibri,Calibri_MSFontService,sans-serif" font-weight="700" font-size="92" transform="matrix(1 0 0 1 2948.7 754)">упражнения </text><g><g><g><path d="M2551.51 1070.62C2554.03 1073.14 2554.03 1077.04 2551.51 1079.56L2540.8 1083.09 2538.91 1081.2 2542.44 1070.49C2545.08 1068.09 2548.99 1068.09 2551.51 1070.62ZM2601.04 1004.82 2538.02 1067.97 2530.08 1091.92 2554.16 1083.98 2617.18 1020.96"/><path d="M2629.53 1001.42 2620.58 992.47C2618.56 990.453 2615.41 990.453 2613.4 992.47L2604.57 1001.29 2620.58 1017.3 2629.4 1008.48C2631.55 1006.59 2631.55 1003.44 2629.53 1001.42Z"/></g></g></g><text font-family="Calibri,Calibri_MSFontService,sans-serif" font-weight="700" font-size="92" transform="matrix(1 0 0 1 2303.66 1344)">домашнее </text><text font-family="Calibri,Calibri_MSFontService,sans-serif" font-weight="700" font-size="92" transform="matrix(1 0 0 1 2351.05 1454)">задание</text><text font-family="Calibri,Calibri_MSFontService,sans-serif" font-weight="700" font-size="92" transform="matrix(1 0 0 1 3005.01 1344)">проверка </text><text font-family="Calibri,Calibri_MSFontService,sans-serif" font-weight="700" font-size="92" transform="matrix(1 0 0 1 3005.01 1454)">учителем</text><path d="M2489.5 420.5 2568.5 460.5 2489.5 500.5Z" stroke="#172C51" stroke-width="4.58333" stroke-miterlimit="8" fill-rule="evenodd"/><path d="M2552.13 608 2552.13 611.167C2552.13 613.067 2549.72 614.333 2546.11 614.333L2485.89 614.333C2482.28 614.333 2479.87 613.067 2479.87 611.167L2479.87 608 2239 608 2239 614.333C2239 621.3 2249.84 627 2263.09 627L2768.91 627C2782.16 627 2793 621.3 2793 614.333L2793 608 2552.13 608Z" fill-rule="evenodd"/><path d="M2302.62 307.834 2302.62 579.636 2730.38 579.636 2730.38 307.834ZM2329.83 285.5 2703.17 285.5C2724.89 285.5 2742.5 309.23 2742.5 338.501L2742.5 550.499C2742.5 579.771 2724.89 603.5 2703.17 603.5L2329.83 603.5C2308.11 603.5 2290.5 579.771 2290.5 550.499L2290.5 338.501C2290.5 309.23 2308.11 285.5 2329.83 285.5Z" stroke="#172C51" stroke-width="4.58333" stroke-miterlimit="8" fill-rule="evenodd"/><path d="M3238 410 3365 410 3365 425 3238 425Z" fill-rule="evenodd"/><path d="M3238 477 3365 477 3365 493 3238 493Z" fill-rule="evenodd"/><path d="M3167 401.016 3156.03 390 3130.16 415.967 3119.97 405.738 3109 416.754 3130.16 438Z" fill-rule="evenodd"/><path d="M3167 468.016 3156.03 457 3130.16 482.967 3119.97 472.738 3109 483.754 3130.16 505Z" fill-rule="evenodd"/><path d="M3256.39 608 3256.39 611.167C3256.39 613.067 3253.97 614.333 3250.33 614.333L3189.67 614.333C3186.04 614.333 3183.61 613.067 3183.61 611.167L3183.61 608 2941 608 2941 614.333C2941 621.3 2951.92 627 2965.26 627L3474.74 627C3488.08 627 3499 621.3 3499 614.333L3499 608 3256.39 608Z" fill-rule="evenodd"/><path d="M3004.73 305.975 3004.73 579.486 3436.27 579.486 3436.27 305.975ZM3032.18 283.5 3408.82 283.5C3430.73 283.5 3448.5 307.379 3448.5 336.835L3448.5 550.166C3448.5 579.621 3430.73 603.5 3408.82 603.5L3032.18 603.5C3010.26 603.5 2992.5 579.621 2992.5 550.166L2992.5 336.835C2992.5 307.379 3010.26 283.5 3032.18 283.5Z" stroke="#172C51" stroke-width="4.58333" stroke-miterlimit="8" fill-rule="evenodd"/><g><g><g><path d="M335.344 376.688 105.656 376.688 105.656 91.875 156.188 91.875 156.188 119.438 284.813 119.438 284.813 91.875 335.344 91.875 335.344 376.688ZM220.5 55.125C228.309 55.125 234.281 61.0969 234.281 68.9063 234.281 76.7156 228.309 82.6875 220.5 82.6875 212.691 82.6875 206.719 76.7156 206.719 68.9063 206.719 65.2313 208.097 61.5563 210.853 59.2594 213.15 56.5031 216.825 55.125 220.5 55.125ZM344.531 64.3125 266.438 64.3125 266.438 55.125C266.438 45.0188 258.169 36.75 248.063 36.75L192.938 36.75C182.831 36.75 174.563 45.0188 174.563 55.125L174.563 64.3125 96.4688 64.3125C86.3625 64.3125 78.0938 72.5813 78.0938 82.6875L78.0938 385.875C78.0938 395.981 86.3625 404.25 96.4688 404.25L344.531 404.25C354.638 404.25 362.906 395.981 362.906 385.875L362.906 82.6875C362.906 72.5813 354.638 64.3125 344.531 64.3125Z" transform="matrix(1.1746 0 0 1 2252 835)"/></g></g></g><g><g><g><path d="M335.344 376.688 105.656 376.688 105.656 91.875 156.188 91.875 156.188 119.438 284.813 119.438 284.813 91.875 335.344 91.875 335.344 376.688ZM220.5 55.125C228.309 55.125 234.281 61.0969 234.281 68.9063 234.281 76.7156 228.309 82.6875 220.5 82.6875 212.691 82.6875 206.719 76.7156 206.719 68.9063 206.719 65.2313 208.097 61.5563 210.853 59.2594 213.15 56.5031 216.825 55.125 220.5 55.125ZM344.531 64.3125 266.438 64.3125 266.438 55.125C266.438 45.0188 258.169 36.75 248.063 36.75L192.938 36.75C182.831 36.75 174.563 45.0188 174.563 55.125L174.563 64.3125 96.4688 64.3125C86.3625 64.3125 78.0938 72.5813 78.0938 82.6875L78.0938 385.875C78.0938 395.981 86.3625 404.25 96.4688 404.25L344.531 404.25C354.638 404.25 362.906 395.981 362.906 385.875L362.906 82.6875C362.906 72.5813 354.638 64.3125 344.531 64.3125Z" transform="matrix(1.1746 0 0 1 2942 835)"/></g></g></g><path d="M3304 1021.93 3292.46 1010 3265.26 1038.13 3254.54 1027.05 3243 1038.98 3265.26 1062Z" fill-rule="evenodd"/><path d="M3304 1093.93 3292.46 1082 3265.26 1110.13 3254.54 1099.05 3243 1110.98 3265.26 1134Z" fill-rule="evenodd"/><path d="M3084 1032 3218 1032 3218 1049 3084 1049Z" fill-rule="evenodd"/><path d="M3084 1104 3218 1104 3218 1121 3084 1121Z" fill-rule="evenodd"/><path d="M2395 1032 2529 1032 2529 1049 2395 1049Z" fill-rule="evenodd"/><path d="M2395 1104 2529 1104 2529 1121 2395 1121Z" fill-rule="evenodd"/></g></svg>