<svg width="1598" height="1559" xmlns="http://www.w3.org/2000/svg" xmlns:xlink="http://www.w3.org/1999/xlink" xml:space="preserve" overflow="hidden"><defs><clipPath id="clip0"><rect x="2031" y="68" width="1598" height="1559"/></clipPath></defs><g clip-path="url(#clip0)" transform="translate(-2031 -68)"><path d="M2290.83 68.0001 3629 68.0001 3629 1367.09C3629 1510.59 3512.67 1626.92 3369.17 1626.92L2031 1626.92 2031 327.826C2031 184.328 2147.33 68.0001 2290.83 68.0001Z" fill="#FFD966" fill-rule="evenodd"/><text font-family="Calibri,Calibri_MSFontService,sans-serif" font-weight="700" font-size="92" transform="matrix(1 0 0 1 2265.86 738)">тема урока</text><text font-family="Calibri,Calibri_MSFontService,sans-serif" font-weight="700" font-size="92" transform="matrix(1 0 0 1 2948.7 736)">упражнения </text><g><g><g><path d="M34.375 97.7625C37.125 100.512 37.125 104.775 34.375 107.525L22.6875 111.375 20.625 109.312 24.475 97.625C27.3625 95.0125 31.625 95.0125 34.375 97.7625ZM88.4125 25.9875 19.6625 94.875 11 121 37.2625 112.337 106.012 43.5875" transform="matrix(1 0 0 1.00758 2459 981)"/><path d="M119.488 22.275 109.725 12.5125C107.525 10.3125 104.087 10.3125 101.887 12.5125L92.2625 22.1375 109.725 39.6 119.35 29.975C121.688 27.9125 121.688 24.475 119.488 22.275Z" transform="matrix(1 0 0 1.00758 2459 981)"/></g></g></g><text font-family="Calibri,Calibri_MSFontService,sans-serif" font-weight="700" font-size="92" transform="matrix(1 0 0 1 2303.66 1322)">домашнее </text><text font-family="Calibri,Calibri_MSFontService,sans-serif" font-weight="700" font-size="92" transform="matrix(1 0 0 1 2351.05 1432)">задание</text><g><g><g><path d="M90.5841 16.6229 36.7176 67.5435 10.8364 41.0311 1.89374 49.553 36.2968 84.9029 45.3447 76.4862 99.106 25.4603Z" transform="matrix(1 0 0 1.0099 3173 929)"/></g></g></g><g><g><g><path d="M90.5841 16.6229 36.7176 67.5435 10.8364 41.0311 1.89374 49.553 36.2968 84.9029 45.3447 76.4862 99.106 25.4603Z" transform="matrix(1 0 0 1.0099 3173 1051)"/></g></g></g><text font-family="Calibri,Calibri_MSFontService,sans-serif" font-weight="700" font-size="92" transform="matrix(1 0 0 1 3005.01 1320)">проверка </text><text font-family="Calibri,Calibri_MSFontService,sans-serif" font-weight="700" font-size="92" transform="matrix(1 0 0 1 3005.01 1430)">учителем</text><path d="M2466.5 394.5 2552.5 437.5 2466.5 480.5Z" stroke="#172C51" stroke-width="4.58333" stroke-miterlimit="8" fill-rule="evenodd"/><path d="M2534.3 597 2534.3 600.333C2534.3 602.333 2531.72 603.667 2527.84 603.667L2463.16 603.667C2459.28 603.667 2456.7 602.333 2456.7 600.333L2456.7 597 2198 597 2198 603.667C2198 611 2209.64 617 2223.87 617L2767.13 617C2781.36 617 2793 611 2793 603.667L2793 597 2534.3 597Z" fill-rule="evenodd"/><path d="M2266.51 274.45 2266.51 565.91 2725.49 565.91 2725.49 274.45ZM2295.7 250.5 2696.3 250.5C2719.61 250.5 2738.5 275.946 2738.5 307.335L2738.5 534.665C2738.5 566.054 2719.61 591.5 2696.3 591.5L2295.7 591.5C2272.4 591.5 2253.5 566.054 2253.5 534.665L2253.5 307.335C2253.5 275.946 2272.4 250.5 2295.7 250.5Z" stroke="#172C51" stroke-width="4.58333" stroke-miterlimit="8" fill-rule="evenodd"/><path d="M3221 386 3356 386 3356 402 3221 402Z" fill-rule="evenodd"/><path d="M3221 458 3356 458 3356 474 3221 474Z" fill-rule="evenodd"/><path d="M3145 375.705 3133.27 364 3105.62 391.59 3094.73 380.721 3083 392.426 3105.62 415Z" fill-rule="evenodd"/><path d="M3145 447.705 3133.27 436 3105.62 463.59 3094.73 452.721 3083 464.426 3105.62 487Z" fill-rule="evenodd"/><path d="M3240.3 597 3240.3 600.333C3240.3 602.333 3237.72 603.667 3233.84 603.667L3169.16 603.667C3165.28 603.667 3162.7 602.333 3162.7 600.333L3162.7 597 2904 597 2904 603.667C2904 611 2915.64 617 2929.87 617L3473.13 617C3487.36 617 3499 611 3499 603.667L3499 597 3240.3 597Z" fill-rule="evenodd"/><path d="M2972.51 274.45 2972.51 565.91 3431.49 565.91 3431.49 274.45ZM3001.7 250.5 3402.3 250.5C3425.6 250.5 3444.5 275.946 3444.5 307.335L3444.5 534.665C3444.5 566.054 3425.6 591.5 3402.3 591.5L3001.7 591.5C2978.39 591.5 2959.5 566.054 2959.5 534.665L2959.5 307.335C2959.5 275.946 2978.39 250.5 3001.7 250.5Z" stroke="#172C51" stroke-width="4.58333" stroke-miterlimit="8" fill-rule="evenodd"/><g><g><g><path d="M335.344 376.688 105.656 376.688 105.656 91.875 156.188 91.875 156.188 119.438 284.813 119.438 284.813 91.875 335.344 91.875 335.344 376.688ZM220.5 55.125C228.309 55.125 234.281 61.0969 234.281 68.9063 234.281 76.7156 228.309 82.6875 220.5 82.6875 212.691 82.6875 206.719 76.7156 206.719 68.9063 206.719 65.2313 208.097 61.5563 210.853 59.2594 213.15 56.5031 216.825 55.125 220.5 55.125ZM344.531 64.3125 266.438 64.3125 266.438 55.125C266.438 45.0188 258.169 36.75 248.063 36.75L192.938 36.75C182.831 36.75 174.563 45.0188 174.563 55.125L174.563 64.3125 96.4688 64.3125C86.3625 64.3125 78.0938 72.5813 78.0938 82.6875L78.0938 385.875C78.0938 395.981 86.3625 404.25 96.4688 404.25L344.531 404.25C354.638 404.25 362.906 395.981 362.906 385.875L362.906 82.6875C362.906 72.5813 354.638 64.3125 344.531 64.3125Z" transform="matrix(1.00227 0 0 1 2290 806)"/></g></g></g><g><g><g><path d="M335.344 376.687 105.656 376.687 105.656 91.8749 156.187 91.8749 156.187 119.437 284.812 119.437 284.812 91.8749 335.344 91.8749 335.344 376.687ZM220.5 55.125C228.309 55.125 234.281 61.0968 234.281 68.9062 234.281 76.7156 228.309 82.6874 220.5 82.6874 212.69 82.6874 206.719 76.7156 206.719 68.9062 206.719 65.2312 208.097 61.5562 210.853 59.2593 213.15 56.5031 216.825 55.125 220.5 55.125ZM344.531 64.3125 266.437 64.3125 266.437 55.125C266.437 45.0187 258.169 36.75 248.062 36.75L192.937 36.75C182.831 36.75 174.562 45.0187 174.562 55.125L174.562 64.3125 96.4687 64.3125C86.3624 64.3125 78.0937 72.5812 78.0937 82.6874L78.0937 385.875C78.0937 395.981 86.3624 404.25 96.4687 404.25L344.531 404.25C354.637 404.25 362.906 395.981 362.906 385.875L362.906 82.6874C362.906 72.5812 354.637 64.3125 344.531 64.3125Z" transform="matrix(1 0 0 1 2981 808)"/></g></g></g></g></svg>