<svg width="1598" height="1559" xmlns="http://www.w3.org/2000/svg" xmlns:xlink="http://www.w3.org/1999/xlink" xml:space="preserve" overflow="hidden"><defs><clipPath id="clip0"><rect x="2031" y="68" width="1598" height="1559"/></clipPath></defs><g clip-path="url(#clip0)" transform="translate(-2031 -68)"><path d="M2290.82 68.0001 3629 68.0001 3629 1367.07C3629 1510.56 3512.67 1626.89 3369.18 1626.89L2031 1626.89 2031 327.82C2031 184.326 2147.33 68.0001 2290.82 68.0001Z" fill="#FFD966" fill-rule="evenodd"/><text font-family="Calibri,Calibri_MSFontService,sans-serif" font-weight="700" font-size="92" transform="matrix(1 0 0 1 2254.07 784)">тема урока</text><text font-family="Calibri,Calibri_MSFontService,sans-serif" font-weight="700" font-size="92" transform="matrix(1 0 0 1 2936.92 781)">упражнения </text><path d="M2725 875 2234 875 2234 1245 2725 1245 2725 875ZM2277.32 918.529 2465.06 918.529 2465.06 1201.47 2277.32 1201.47 2277.32 918.529ZM2681.68 1201.47 2493.94 1201.47 2493.94 918.529 2681.68 918.529 2681.68 1201.47Z" fill-rule="evenodd"/><path d="M2316 991 2417 991 2417 1013 2316 1013Z" fill-rule="evenodd"/><path d="M2316 1034 2417 1034 2417 1056 2316 1056Z" fill-rule="evenodd"/><path d="M2316 1078 2386 1078 2386 1100 2316 1100Z" fill-rule="evenodd"/><g><g><g><path d="M43.2291 122.944C46.6874 126.402 46.6874 131.762 43.2291 135.221L28.5312 140.062 25.9374 137.468 30.7791 122.771C34.4103 119.485 39.7708 119.485 43.2291 122.944ZM111.185 32.6812 24.727 119.312 13.8333 152.166 46.8603 141.273 133.318 54.8145" transform="matrix(1 0 0 1 2513 956)"/><path d="M150.264 28.0124 137.987 15.7354C135.221 12.9687 130.898 12.9687 128.131 15.7354L116.027 27.8395 137.987 49.7999 150.091 37.6958C153.031 35.102 153.031 30.7791 150.264 28.0124Z" transform="matrix(1 0 0 1 2513 956)"/></g></g></g><text font-family="Calibri,Calibri_MSFontService,sans-serif" font-weight="700" font-size="92" transform="matrix(1 0 0 1 2291.88 1368)">домашнее </text><text font-family="Calibri,Calibri_MSFontService,sans-serif" font-weight="700" font-size="92" transform="matrix(1 0 0 1 2339.27 1478)">задание</text><path d="M3414 878 2923 878 2923 1248 3414 1248 3414 878ZM2966.32 921.529 3154.06 921.529 3154.06 1204.47 2966.32 1204.47 2966.32 921.529ZM3370.68 1204.47 3182.94 1204.47 3182.94 921.529 3370.68 921.529 3370.68 1204.47Z" fill-rule="evenodd"/><path d="M3005 994 3106 994 3106 1016 3005 1016Z" fill-rule="evenodd"/><path d="M3005 1038 3106 1038 3106 1060 3005 1060Z" fill-rule="evenodd"/><path d="M3005 1082 3075 1082 3075 1103 3005 1103Z" fill-rule="evenodd"/><g><g><g><path d="M3312.58 958.623 3258.72 1009.54 3232.84 983.031 3223.89 991.553 3258.3 1026.9 3267.34 1018.49 3321.11 967.46Z"/></g></g></g><g><g><g><path d="M90.5844 16.6229 36.7177 67.5438 10.8365 41.0313 1.89375 49.5532 36.2969 84.9032 45.3448 76.4865 99.1063 25.4604Z" transform="matrix(1 0 0 1.0099 3222 1063)"/></g></g></g><text font-family="Calibri,Calibri_MSFontService,sans-serif" font-weight="700" font-size="92" transform="matrix(1 0 0 1 2993.22 1366)">проверка </text><text font-family="Calibri,Calibri_MSFontService,sans-serif" font-weight="700" font-size="92" transform="matrix(1 0 0 1 2993.22 1476)">учителем</text><g><g><g><path d="M533.583 421.25 140.417 421.25 140.417 182.542 533.583 182.542 533.583 421.25ZM575.708 168.5C575.708 153.054 563.071 140.417 547.625 140.417L126.375 140.417C110.929 140.417 98.2917 153.054 98.2917 168.5L98.2917 463.375 575.708 463.375 575.708 168.5Z" transform="matrix(1 0 0 1.00445 2827 134)"/><path d="M379.125 491.458 379.125 498.479C379.125 502.692 376.317 505.5 372.104 505.5L301.896 505.5C297.683 505.5 294.875 502.692 294.875 498.479L294.875 491.458 14.0417 491.458 14.0417 505.5C14.0417 520.946 26.6792 533.583 42.125 533.583L631.875 533.583C647.321 533.583 659.958 520.946 659.958 505.5L659.958 491.458 379.125 491.458Z" transform="matrix(1 0 0 1.00445 2827 134)"/></g></g></g><path d="M3190 397 3324 397 3324 429 3190 429Z" fill-rule="evenodd"/><path d="M3190 469 3324 469 3324 501 3190 501Z" fill-rule="evenodd"/><path d="M3137 376.262 3114.86 354 3062.69 406.476 3042.13 385.803 3020 408.066 3062.69 451Z" fill-rule="evenodd"/><path d="M3137 448.262 3114.86 426 3062.69 478.476 3042.13 457.803 3020 480.065 3062.69 523Z" fill-rule="evenodd"/><g><g><g><path d="M533.583 421.25 140.417 421.25 140.417 182.542 533.583 182.542 533.583 421.25ZM575.708 168.5C575.708 153.054 563.071 140.417 547.625 140.417L126.375 140.417C110.929 140.417 98.2917 153.054 98.2917 168.5L98.2917 463.375 575.708 463.375 575.708 168.5Z" transform="matrix(1 0 0 1.00593 2143 135)"/><path d="M379.125 491.458 379.125 498.479C379.125 502.692 376.317 505.5 372.104 505.5L301.896 505.5C297.683 505.5 294.875 502.692 294.875 498.479L294.875 491.458 14.0417 491.458 14.0417 505.5C14.0417 520.946 26.6792 533.583 42.125 533.583L631.875 533.583C647.321 533.583 659.958 520.946 659.958 505.5L659.958 491.458 379.125 491.458Z" transform="matrix(1 0 0 1.00593 2143 135)"/></g></g></g><path d="M2449.5 407.5 2534.5 450 2449.5 492.5Z" stroke="#172C51" stroke-width="4.58333" stroke-miterlimit="8" fill-rule="evenodd"/></g></svg>