<svg width="1810" height="935" xmlns="http://www.w3.org/2000/svg" xmlns:xlink="http://www.w3.org/1999/xlink" xml:space="preserve" overflow="hidden"><defs><clipPath id="clip0"><rect x="0" y="1030" width="1810" height="935"/></clipPath></defs><g clip-path="url(#clip0)" transform="matrix(1 0 0 1 0 -1030)"><path d="M0 1030 1810 1030 1810 1777.85 1793.72 1803.65C1712.8 1919.75 1623.65 1935.14 1536.84 1942.31 1450.03 1949.48 1367.83 1842.88 1272.86 1846.65 1177.89 1850.43 1082.25 1966.89 967.01 1964.98 851.773 1963.06 701.042 1835.56 581.437 1835.16 461.832 1834.77 339.051 1977.11 249.38 1962.61 159.709 1948.11 135.058 1912.27 43.4138 1748.16L7.66555 1686.25 0 1686.25 0 1030Z" fill="#FFD966" fill-rule="evenodd"/><text fill="#023E8A" font-family="Segoe UI,Segoe UI_MSFontService,sans-serif" font-weight="700" font-size="183" transform="matrix(1 0 0 1 255.363 1341)">Native Speech </text><text fill="#023E8A" font-family="Segoe UI,Segoe UI_MSFontService,sans-serif" font-weight="700" font-size="183" transform="matrix(1 0 0 1 1532.9 1341)">-</text><text fill="#023E8A" font-family="Segoe UI,Segoe UI_MSFontService,sans-serif" font-weight="700" font-size="183" transform="matrix(1 0 0 1 273.994 1561)">онлайн</text><text fill="#023E8A" font-family="Segoe UI,Segoe UI_MSFontService,sans-serif" font-weight="700" font-size="183" transform="matrix(1 0 0 1 935.14 1561)">-</text><text fill="#023E8A" font-family="Segoe UI,Segoe UI_MSFontService,sans-serif" font-weight="700" font-size="183" transform="matrix(1 0 0 1 1009.05 1561)">школа</text><text fill="#023E8A" font-family="Segoe UI,Segoe UI_MSFontService,sans-serif" font-weight="700" font-size="110" transform="matrix(1 0 0 1 158.746 1707)">французского и английского</text></g></svg>