<svg width="3978" height="718" xmlns="http://www.w3.org/2000/svg" xmlns:xlink="http://www.w3.org/1999/xlink" xml:space="preserve" overflow="hidden"><defs><clipPath id="clip0"><rect x="211" y="1445" width="3978" height="718"/></clipPath></defs><g clip-path="url(#clip0)" transform="translate(-211 -1445)"><path d="M211 1445 4189 1445 4189 1981.18 4153.22 1999.67C3975.37 2082.91 3779.44 2140.89 3588.64 2146.03 3397.85 2151.17 3217.87 2027.68 3008.47 2030.5 2799.08 2033.33 2585.53 2161.68 2332.26 2162.99 2078.99 2164.3 1748.13 2045.39 1488.88 2038.37 1229.63 2031.35 973.85 2133.94 776.773 2120.86 579.696 2107.78 507.829 2077.55 306.414 1959.89L227.847 1915.5 211 1915.5 211 1445Z" fill="#FFD966" fill-rule="evenodd"/><text fill="#023E8A" font-family="Segoe UI,Segoe UI_MSFontService,sans-serif" font-weight="700" font-size="156" transform="matrix(1 0 0 1 985.617 1705)">Native Speech </text><text fill="#023E8A" font-family="Segoe UI,Segoe UI_MSFontService,sans-serif" font-weight="700" font-size="156" transform="matrix(1 0 0 1 2071.5 1705)">-</text><text fill="#023E8A" font-family="Segoe UI,Segoe UI_MSFontService,sans-serif" font-weight="700" font-size="156" transform="matrix(1 0 0 1 2177.49 1705)">онлайн</text><text fill="#023E8A" font-family="Segoe UI,Segoe UI_MSFontService,sans-serif" font-weight="700" font-size="156" transform="matrix(1 0 0 1 2738.38 1705)">-</text><text fill="#023E8A" font-family="Segoe UI,Segoe UI_MSFontService,sans-serif" font-weight="700" font-size="156" transform="matrix(1 0 0 1 2801.4 1705)">школа </text><text fill="#023E8A" font-family="Segoe UI,Segoe UI_MSFontService,sans-serif" font-weight="700" font-size="156" transform="matrix(1 0 0 1 985.617 1887)">французского</text><text fill="#023E8A" font-family="Segoe UI,Segoe UI_MSFontService,sans-serif" font-weight="700" font-size="156" transform="matrix(1 0 0 1 2096.57 1887)">и</text><text fill="#023E8A" font-family="Segoe UI,Segoe UI_MSFontService,sans-serif" font-weight="700" font-size="156" transform="matrix(1 0 0 1 2237.51 1887)">английского языков</text></g></svg>