<svg width="3978" height="888" xmlns="http://www.w3.org/2000/svg" xmlns:xlink="http://www.w3.org/1999/xlink" xml:space="preserve" overflow="hidden"><defs><clipPath id="clip0"><rect x="0" y="1030" width="3978" height="888"/></clipPath></defs><g clip-path="url(#clip0)" transform="matrix(1 0 0 1 0 -1030)"><path d="M0 1030 3978 1030 3978 1668.09 3942.22 1690.1C3764.37 1789.16 3568.44 1858.16 3377.64 1864.27 3186.85 1870.39 3006.2 1717.84 2797.47 1726.79 2588.75 1735.74 2378.55 1919.62 2125.28 1917.99 1872.02 1916.36 1537.8 1730.93 1277.88 1716.99 1017.96 1703.04 762.85 1846.7 565.773 1834.32 368.696 1821.95 296.829 1782.77 95.4144 1642.75L16.8473 1589.93 0 1589.93 0 1030Z" fill="#FFD966" fill-rule="evenodd"/><text fill="#023E8A" font-family="Segoe UI,Segoe UI_MSFontService,sans-serif" font-weight="700" font-size="147" transform="matrix(1 0 0 1 907.656 1332)">Native Speech </text><text fill="#023E8A" font-family="Segoe UI,Segoe UI_MSFontService,sans-serif" font-weight="700" font-size="147" transform="matrix(1 0 0 1 1932.31 1332)">-</text><text fill="#023E8A" font-family="Segoe UI,Segoe UI_MSFontService,sans-serif" font-weight="700" font-size="147" transform="matrix(1 0 0 1 2032.57 1332)">онлайн</text><text fill="#023E8A" font-family="Segoe UI,Segoe UI_MSFontService,sans-serif" font-weight="700" font-size="147" transform="matrix(1 0 0 1 2561.94 1332)">-</text><text fill="#023E8A" font-family="Segoe UI,Segoe UI_MSFontService,sans-serif" font-weight="700" font-size="147" transform="matrix(1 0 0 1 2621.52 1332)">школа </text><text fill="#023E8A" font-family="Segoe UI,Segoe UI_MSFontService,sans-serif" font-weight="700" font-size="147" transform="matrix(1 0 0 1 907.656 1503)">французского</text><text fill="#023E8A" font-family="Segoe UI,Segoe UI_MSFontService,sans-serif" font-weight="700" font-size="147" transform="matrix(1 0 0 1 1955.36 1503)">и</text><text fill="#023E8A" font-family="Segoe UI,Segoe UI_MSFontService,sans-serif" font-weight="700" font-size="147" transform="matrix(1 0 0 1 2088.28 1503)">английского</text></g></svg>