<svg width="1810" height="763" xmlns="http://www.w3.org/2000/svg" xmlns:xlink="http://www.w3.org/1999/xlink" xml:space="preserve" overflow="hidden"><g transform="matrix(1 0 0 1 0 -1014)"><path d="M0 1030 1810 1030 1810 1627.48 1793.72 1648.09C1712.8 1740.85 1623.65 1753.15 1536.84 1758.87 1450.03 1764.6 1367.83 1679.43 1272.86 1682.45 1177.89 1685.47 1082.25 1778.51 967.01 1776.98 851.773 1775.45 701.042 1673.59 581.437 1673.27 461.832 1672.96 339.051 1786.68 249.38 1775.09 159.709 1763.51 135.058 1734.87 43.4138 1603.76L7.66555 1554.3 0 1554.3 0 1030Z" fill="#FFD966" fill-rule="evenodd"/><text fill="#023E8A" font-family="Segoe UI,Segoe UI_MSFontService,sans-serif" font-weight="700" font-size="183" transform="matrix(1 0 0 1 255.363 1248)">Native Speech </text><text fill="#023E8A" font-family="Segoe UI,Segoe UI_MSFontService,sans-serif" font-weight="700" font-size="183" transform="matrix(1 0 0 1 1532.9 1248)">-</text><text fill="#023E8A" font-family="Segoe UI,Segoe UI_MSFontService,sans-serif" font-weight="700" font-size="183" transform="matrix(1 0 0 1 273.994 1468)">онлайн</text><text fill="#023E8A" font-family="Segoe UI,Segoe UI_MSFontService,sans-serif" font-weight="700" font-size="183" transform="matrix(1 0 0 1 935.14 1468)">-</text><text fill="#023E8A" font-family="Segoe UI,Segoe UI_MSFontService,sans-serif" font-weight="700" font-size="183" transform="matrix(1 0 0 1 1009.05 1468)">школа</text><text fill="#023E8A" font-family="Segoe UI,Segoe UI_MSFontService,sans-serif" font-weight="700" font-size="110" transform="matrix(1 0 0 1 158.746 1614)">французского и английского</text></g></svg>